<svg xmlns="http://www.w3.org/2000/svg" viewBox="0 0 190 70"><g aria-label="Open LOL"><path d="M82.786 26.652q0 1.195-.316 2.308-.305 1.102-.867 2.075-.563.96-1.36 1.758-.797.796-1.758 1.37-.96.563-2.074.868-1.113.316-2.308.316-1.196 0-2.309-.316-1.102-.305-2.074-.867-.961-.575-1.758-1.371-.797-.797-1.371-1.758-.563-.973-.88-2.075-.304-1.113-.304-2.308 0-1.195.305-2.309.316-1.113.879-2.074.574-.96 1.37-1.758.798-.797 1.759-1.36.972-.562 2.074-.866 1.113-.317 2.309-.317 1.195 0 2.308.317 1.113.304 2.074.867.961.562 1.758 1.36.797.796 1.36 1.757.562.961.867 2.074.316 1.114.316 2.309zm-3.34 0q0-1.102-.422-2.074-.421-.985-1.148-1.7-.715-.726-1.7-1.148-.972-.422-2.073-.422-1.114 0-2.086.422-.973.422-1.7 1.148-.726.715-1.148 1.7-.422.972-.422 2.074 0 1.101.422 2.074.422.961 1.148 1.688.727.726 1.7 1.148.972.422 2.086.422 1.101 0 2.074-.422.984-.422 1.699-1.148.727-.727 1.148-1.688.422-.973.422-2.074zM87.86 39.765h-3.222V22.433h.773l1.278 1.512q.433-.41.949-.774.515-.363 1.066-.62.563-.27 1.16-.423.598-.152 1.207-.152 1.325 0 2.485.48 1.172.47 2.039 1.337.879.867 1.383 2.097.503 1.219.503 2.707 0 1.547-.503 2.79-.504 1.23-1.383 2.097-.867.855-2.04 1.312-1.16.457-2.484.457-.422 0-.843-.093-.41-.094-.82-.246-.4-.164-.798-.364-.386-.199-.75-.41zm6.41-11.168q0-.797-.257-1.43-.246-.632-.68-1.066-.434-.445-1.02-.68-.585-.234-1.242-.234-.656 0-1.242.234-.574.235-1.008.68-.433.434-.691 1.067-.246.632-.246 1.43 0 .76.246 1.394.258.633.691 1.078.434.445 1.008.691.586.246 1.242.246.657 0 1.243-.246.585-.246 1.019-.691.434-.445.68-1.078.258-.633.258-1.395zM104.255 31.914q.187.058.375.082.187.011.375.011.469 0 .902-.129.434-.128.809-.363.387-.246.68-.586.304-.351.492-.773l2.343 2.355q-.445.633-1.03 1.137-.575.504-1.255.855-.668.352-1.418.528-.738.187-1.523.187-1.324 0-2.496-.492-1.16-.492-2.04-1.371-.866-.879-1.37-2.086-.504-1.219-.504-2.672 0-1.488.504-2.719.504-1.23 1.37-2.097.88-.867 2.04-1.348 1.172-.48 2.496-.48.785 0 1.535.187.75.188 1.418.54.68.35 1.266.866.586.504 1.03 1.137zm1.64-6.598q-.222-.082-.445-.106-.21-.023-.445-.023-.656 0-1.242.246-.574.235-1.008.68-.422.445-.668 1.078-.246.621-.246 1.406 0 .176.012.399.023.222.058.457.047.222.106.433.058.211.152.375zM115.071 34.984h-3.199v-12.55h.774l1.054 1.218q.774-.703 1.746-1.078.985-.387 2.051-.387 1.149 0 2.168.445 1.02.434 1.781 1.207.762.762 1.196 1.793.445 1.02.445 2.18v7.172h-3.2v-7.172q0-.492-.187-.926-.187-.445-.515-.773-.329-.328-.762-.516-.434-.187-.926-.187-.504 0-.95.187-.444.188-.773.516-.328.328-.515.773-.188.434-.188.926z" fill="#faf5ff"/><path d="M144.18 34.984h-11.765V18.179h3.363v13.442h8.403zM161.817 26.652q0 1.195-.316 2.308-.305 1.102-.867 2.075-.563.96-1.36 1.758-.796.796-1.757 1.37-.961.563-2.075.868-1.113.316-2.308.316-1.195 0-2.309-.316-1.101-.305-2.074-.867-.96-.575-1.758-1.371-.797-.797-1.37-1.758-.563-.973-.88-2.075-.304-1.113-.304-2.308 0-1.195.304-2.309.317-1.113.88-2.074.573-.96 1.37-1.758.797-.797 1.758-1.36.973-.562 2.074-.866 1.114-.317 2.309-.317t2.308.317q1.114.304 2.075.867.96.562 1.757 1.36.797.796 1.36 1.757.562.961.867 2.074.316 1.114.316 2.309zm-3.34 0q0-1.102-.421-2.074-.422-.985-1.149-1.7-.715-.726-1.699-1.148-.973-.422-2.074-.422-1.113 0-2.086.422-.973.422-1.7 1.148-.726.715-1.148 1.7-.422.972-.422 2.074 0 1.101.422 2.074.422.961 1.149 1.688.726.726 1.699 1.148.973.422 2.086.422 1.101 0 2.074-.422.984-.422 1.7-1.148.726-.727 1.148-1.688.422-.973.422-2.074zM175.774 34.984H164.01V18.179h3.363v13.442h8.402z" fill="#b83280"/></g><path d="M60.035 47.044l-.49-.231-.04.54c-.12 1.655-.689 4.45-1.697 4.907-.11.05-.448.203-1.075-.27-1.678-1.266-7.438-21.727-10.905-35.185-.618-2.052-2.033-3.795-3.88-4.784-1.586-.847-3.356-1.04-4.984-.543a6.826 6.826 0 00-4.365 4.06c-1.648 4.318 1.005 7.281 1.119 7.405l.384.42.23-.521c.881-1.998 2.76-5.211 4.047-5.332.113-.01.458-.043.843.517.933 1.355 2.636 6.371 4.426 12.212L32.076 58.792h5.695l8.227-20.629a880.762 880.762 0 014.207 15.12c.732 2.822 3.095 4.992 5.88 5.401.315.047.628.07.938.07 2.48 0 4.769-1.465 6.386-4.13l.01-.018c.66-1.25.794-2.484.398-3.67-.827-2.476-3.662-3.836-3.782-3.892zM37.268 58.048H33.18l10.813-26.68A510.347 510.347 0 0145.662 37zm25.5-3.8c-1.657 2.723-4.054 4.073-6.575 3.7-2.494-.366-4.61-2.316-5.269-4.853-.344-1.291-8.459-31.669-11.09-35.49-.466-.678-.99-.842-1.387-.842a1.4 1.4 0 00-.137.007c-1.803.17-3.69 3.733-4.395 5.201-.62-.939-1.748-3.215-.621-6.168a6.08 6.08 0 013.887-3.614c1.437-.439 3.006-.265 4.416.488 1.675.896 2.958 2.478 3.515 4.328.889 3.449 8.75 33.749 11.173 35.578.65.491 1.266.61 1.83.354 1.43-.647 1.926-3.65 2.077-4.96.801.477 2.386 1.591 2.92 3.197.328.982.211 2.017-.345 3.075z" fill="none" stroke="#b83280" stroke-width="1.405"/><g fill="none" stroke="#faf5ff" stroke-width="3.801"><path d="M33.73 5.08A33.1 33.1 0 0147.885 1.9a33.1 33.1 0 0122.778 9.084 33.1 33.1 0 012.11 2.194M22.059 55.703A33.1 33.1 0 0114.785 35a33.1 33.1 0 014.386-16.465M79.903 43.391A33.1 33.1 0 0147.885 68.1a33.1 33.1 0 01-6-.549"/></g></svg>
